{
	"patcher" : 	{
		"fileversion" : 1,
		"appversion" : 		{
			"major" : 8,
			"minor" : 0,
			"revision" : 3,
			"architecture" : "x64",
			"modernui" : 1
		}
,
		"classnamespace" : "box",
		"rect" : [ 155.0, 79.0, 1160.0, 736.0 ],
		"bglocked" : 0,
		"openinpresentation" : 0,
		"default_fontsize" : 12.0,
		"default_fontface" : 0,
		"default_fontname" : "Arial",
		"gridonopen" : 1,
		"gridsize" : [ 15.0, 15.0 ],
		"gridsnaponopen" : 1,
		"objectsnaponopen" : 1,
		"statusbarvisible" : 2,
		"toolbarvisible" : 1,
		"lefttoolbarpinned" : 0,
		"toptoolbarpinned" : 0,
		"righttoolbarpinned" : 0,
		"bottomtoolbarpinned" : 0,
		"toolbars_unpinned_last_save" : 0,
		"tallnewobj" : 0,
		"boxanimatetime" : 200,
		"enablehscroll" : 1,
		"enablevscroll" : 1,
		"devicewidth" : 0.0,
		"description" : "",
		"digest" : "",
		"tags" : "",
		"style" : "",
		"subpatcher_template" : "",
		"boxes" : [ 			{
				"box" : 				{
					"id" : "obj-3",
					"maxclass" : "newobj",
					"numinlets" : 1,
					"numoutlets" : 1,
					"outlettype" : [ "bang" ],
					"patching_rect" : [ 37.666667938232422, 644.5, 58.0, 22.0 ],
					"text" : "loadbang"
				}

			}
, 			{
				"box" : 				{
					"id" : "obj-2",
					"maxclass" : "toggle",
					"numinlets" : 1,
					"numoutlets" : 1,
					"outlettype" : [ "int" ],
					"parameter_enable" : 0,
					"patching_rect" : [ 37.666667938232422, 681.5, 24.0, 24.0 ]
				}

			}
, 			{
				"box" : 				{
					"id" : "obj-89",
					"maxclass" : "newobj",
					"numinlets" : 0,
					"numoutlets" : 1,
					"outlettype" : [ "" ],
					"patching_rect" : [ 150.833328247070312, 315.0, 49.0, 22.0 ],
					"text" : "r bang2"
				}

			}
, 			{
				"box" : 				{
					"id" : "obj-87",
					"maxclass" : "button",
					"numinlets" : 1,
					"numoutlets" : 1,
					"outlettype" : [ "bang" ],
					"parameter_enable" : 0,
					"patching_rect" : [ 259.333343505859375, 780.3333740234375, 24.0, 24.0 ]
				}

			}
, 			{
				"box" : 				{
					"id" : "obj-85",
					"maxclass" : "newobj",
					"numinlets" : 0,
					"numoutlets" : 1,
					"outlettype" : [ "" ],
					"patching_rect" : [ 259.333343505859375, 745.3333740234375, 49.0, 22.0 ],
					"text" : "r bang0"
				}

			}
, 			{
				"box" : 				{
					"fontname" : "Arial",
					"fontsize" : 9.0,
					"id" : "obj-104",
					"maxclass" : "message",
					"numinlets" : 2,
					"numoutlets" : 1,
					"outlettype" : [ "" ],
					"patching_rect" : [ 134.333343505859375, 745.3333740234375, 33.0, 19.0 ],
					"text" : "close"
				}

			}
, 			{
				"box" : 				{
					"fontname" : "Arial",
					"fontsize" : 9.0,
					"id" : "obj-105",
					"maxclass" : "message",
					"numinlets" : 2,
					"numoutlets" : 1,
					"outlettype" : [ "" ],
					"patching_rect" : [ 76.666671752929688, 745.3333740234375, 30.0, 19.0 ],
					"text" : "open"
				}

			}
, 			{
				"box" : 				{
					"fontface" : 0,
					"fontname" : "Arial",
					"fontsize" : 9.0,
					"id" : "obj-106",
					"maxclass" : "newobj",
					"numinlets" : 2,
					"numoutlets" : 1,
					"outlettype" : [ "bang" ],
					"patching_rect" : [ 37.666667938232422, 718.3333740234375, 44.0, 19.0 ],
					"text" : "qmetro 2"
				}

			}
, 			{
				"box" : 				{
					"fontface" : 0,
					"fontname" : "Arial",
					"fontsize" : 9.0,
					"id" : "obj-81",
					"maxclass" : "newobj",
					"numinlets" : 1,
					"numoutlets" : 2,
					"outlettype" : [ "jit_matrix", "" ],
					"patching_rect" : [ 37.666667938232422, 773.3333740234375, 117.0, 19.0 ],
					"text" : "jit.grab 320 240 @unique 1"
				}

			}
, 			{
				"box" : 				{
					"id" : "obj-80",
					"maxclass" : "button",
					"numinlets" : 1,
					"numoutlets" : 1,
					"outlettype" : [ "bang" ],
					"parameter_enable" : 0,
					"patching_rect" : [ 150.833328247070312, 369.16668701171875, 24.0, 24.0 ]
				}

			}
, 			{
				"box" : 				{
					"fontname" : "Arial Bold",
					"fontsize" : 10.0,
					"id" : "obj-56",
					"maxclass" : "comment",
					"numinlets" : 1,
					"numoutlets" : 0,
					"patching_rect" : [ 810.66668701171875, 709.3333740234375, 273.0, 18.0 ],
					"text" : "click, and the buffer should be filled with audio"
				}

			}
, 			{
				"box" : 				{
					"fontname" : "Arial Bold",
					"fontsize" : 10.0,
					"id" : "obj-57",
					"maxclass" : "newobj",
					"numinlets" : 1,
					"numoutlets" : 2,
					"outlettype" : [ "float", "bang" ],
					"patching_rect" : [ 522.0, 750.3333740234375, 45.0, 20.0 ],
					"text" : "buffer~"
				}

			}
, 			{
				"box" : 				{
					"fontname" : "Arial Bold",
					"fontsize" : 10.0,
					"id" : "obj-685",
					"maxclass" : "message",
					"numinlets" : 2,
					"numoutlets" : 1,
					"outlettype" : [ "" ],
					"patching_rect" : [ 522.0, 718.3333740234375, 123.0, 20.0 ],
					"text" : "import blading.mov 0 -1"
				}

			}
, 			{
				"box" : 				{
					"id" : "obj-65",
					"maxclass" : "newobj",
					"numinlets" : 1,
					"numoutlets" : 0,
					"patching_rect" : [ 224.68890380859375, 905.29046630859375, 33.0, 22.0 ],
					"text" : "print"
				}

			}
, 			{
				"box" : 				{
					"id" : "obj-66",
					"maxclass" : "jit.pwindow",
					"numinlets" : 1,
					"numoutlets" : 2,
					"onscreen" : 0,
					"outlettype" : [ "", "" ],
					"patching_rect" : [ 37.666667938232422, 879.9571533203125, 160.0, 120.0 ]
				}

			}
, 			{
				"box" : 				{
					"id" : "obj-68",
					"maxclass" : "message",
					"numinlets" : 2,
					"numoutlets" : 1,
					"outlettype" : [ "" ],
					"patching_rect" : [ 259.333343505859375, 829.653564453125, 33.0, 22.0 ],
					"style" : "messageYellow",
					"text" : "stop"
				}

			}
, 			{
				"box" : 				{
					"id" : "obj-70",
					"maxclass" : "newobj",
					"numinlets" : 1,
					"numoutlets" : 2,
					"outlettype" : [ "jit_matrix", "" ],
					"patching_rect" : [ 37.666667938232422, 840.80535888671875, 115.0, 22.0 ],
					"style" : "newobjYellow-1",
					"text" : "jit.record 320 240"
				}

			}
, 			{
				"box" : 				{
					"fontname" : "Arial",
					"fontsize" : 10.0,
					"id" : "obj-39",
					"linecount" : 2,
					"maxclass" : "message",
					"numinlets" : 2,
					"numoutlets" : 1,
					"outlettype" : [ "" ],
					"patching_rect" : [ 462.0, 344.0, 245.0, 31.0 ],
					"text" : ";\rmax launch_browser http://www.lividinstruments.com"
				}

			}
, 			{
				"box" : 				{
					"fontface" : 1,
					"fontname" : "Arial",
					"fontsize" : 14.0,
					"id" : "obj-37",
					"linecount" : 2,
					"maxclass" : "comment",
					"numinlets" : 1,
					"numoutlets" : 0,
					"patching_rect" : [ 462.0, 299.0, 225.0, 38.0 ],
					"text" : "patch by Peter Nyboer\npete@lividinstruments.com"
				}

			}
, 			{
				"box" : 				{
					"fontname" : "Arial",
					"fontsize" : 10.0,
					"id" : "obj-35",
					"linecount" : 3,
					"maxclass" : "comment",
					"numinlets" : 1,
					"numoutlets" : 0,
					"patching_rect" : [ 670.66668701171875, 615.0, 150.0, 40.0 ],
					"text" : "also a good thing to know: how to get the path to the Max application (or your standalone)"
				}

			}
, 			{
				"box" : 				{
					"fontname" : "Arial",
					"fontsize" : 12.0,
					"id" : "obj-33",
					"maxclass" : "newobj",
					"numinlets" : 1,
					"numoutlets" : 1,
					"outlettype" : [ "" ],
					"patching_rect" : [ 100.333328247070312, 644.5, 83.0, 22.0 ],
					"text" : "prepend write"
				}

			}
, 			{
				"box" : 				{
					"fontname" : "Arial",
					"fontsize" : 12.0,
					"id" : "obj-32",
					"linecount" : 3,
					"maxclass" : "comment",
					"numinlets" : 1,
					"numoutlets" : 0,
					"patching_rect" : [ 457.0, 479.0, 285.0, 47.0 ],
					"text" : "sprintf combines all this. the \"symout\" property ensures that it comes out a symbol. It saves you an additional \"tosymbol\" attached to sprintf's outlet. "
				}

			}
, 			{
				"box" : 				{
					"fontname" : "Arial",
					"fontsize" : 12.0,
					"id" : "obj-30",
					"linecount" : 3,
					"maxclass" : "comment",
					"numinlets" : 1,
					"numoutlets" : 0,
					"patching_rect" : [ 482.0, 394.0, 189.0, 47.0 ],
					"text" : "ensures, as best as possible, a unique filename by appending some time-based data on the end"
				}

			}
, 			{
				"box" : 				{
					"fontname" : "Arial",
					"fontsize" : 12.0,
					"id" : "obj-26",
					"maxclass" : "newobj",
					"numinlets" : 1,
					"numoutlets" : 3,
					"outlettype" : [ "bang", "bang", "bang" ],
					"patching_rect" : [ 150.833328247070312, 406.5, 184.0, 22.0 ],
					"text" : "t b b b"
				}

			}
, 			{
				"box" : 				{
					"fontname" : "Arial",
					"fontsize" : 12.0,
					"id" : "obj-24",
					"maxclass" : "newobj",
					"numinlets" : 1,
					"numoutlets" : 1,
					"outlettype" : [ "" ],
					"patching_rect" : [ 323.333343505859375, 591.5, 59.0, 22.0 ],
					"text" : "tosymbol"
				}

			}
, 			{
				"box" : 				{
					"fontname" : "Arial",
					"fontsize" : 12.0,
					"id" : "obj-22",
					"maxclass" : "newobj",
					"numinlets" : 1,
					"numoutlets" : 1,
					"outlettype" : [ "" ],
					"patching_rect" : [ 233.333328247070312, 551.5, 59.0, 22.0 ],
					"text" : "tosymbol"
				}

			}
, 			{
				"box" : 				{
					"fontname" : "Arial",
					"fontsize" : 12.0,
					"id" : "obj-21",
					"maxclass" : "message",
					"numinlets" : 2,
					"numoutlets" : 1,
					"outlettype" : [ "" ],
					"patching_rect" : [ 233.333328247070312, 514.83331298828125, 41.0, 22.0 ],
					"text" : "movie"
				}

			}
, 			{
				"box" : 				{
					"fontname" : "Arial",
					"fontsize" : 12.0,
					"id" : "obj-19",
					"maxclass" : "message",
					"numinlets" : 2,
					"numoutlets" : 1,
					"outlettype" : [ "" ],
					"patching_rect" : [ 393.66668701171875, 616.5, 114.0, 22.0 ],
					"text" : "3 25 2019"
				}

			}
, 			{
				"box" : 				{
					"fontname" : "Arial",
					"fontsize" : 12.0,
					"id" : "obj-16",
					"maxclass" : "message",
					"numinlets" : 2,
					"numoutlets" : 1,
					"outlettype" : [ "" ],
					"patching_rect" : [ 323.333343505859375, 479.0, 65.0, 22.0 ],
					"text" : "ticks, date"
				}

			}
, 			{
				"box" : 				{
					"fontname" : "Arial",
					"fontsize" : 12.0,
					"id" : "obj-14",
					"maxclass" : "newobj",
					"numinlets" : 1,
					"numoutlets" : 3,
					"outlettype" : [ "list", "list", "int" ],
					"patching_rect" : [ 323.333343505859375, 508.166656494140625, 46.0, 22.0 ],
					"text" : "date"
				}

			}
, 			{
				"box" : 				{
					"fontname" : "Arial",
					"fontsize" : 12.0,
					"id" : "obj-15",
					"maxclass" : "newobj",
					"numinlets" : 1,
					"numoutlets" : 1,
					"outlettype" : [ "" ],
					"patching_rect" : [ 153.333328247070312, 531.5, 59.0, 22.0 ],
					"text" : "tosymbol"
				}

			}
, 			{
				"box" : 				{
					"fontname" : "Arial",
					"fontsize" : 12.0,
					"id" : "obj-18",
					"maxclass" : "message",
					"numinlets" : 2,
					"numoutlets" : 1,
					"outlettype" : [ "" ],
					"patching_rect" : [ 100.333328247070312, 690.16668701171875, 302.0, 22.0 ],
					"text" : "write \"Macintosh HD:/Applications/videos/movie-3.mov\""
				}

			}
, 			{
				"box" : 				{
					"fontname" : "Arial",
					"fontsize" : 12.0,
					"id" : "obj-20",
					"maxclass" : "newobj",
					"numinlets" : 3,
					"numoutlets" : 1,
					"outlettype" : [ "" ],
					"patching_rect" : [ 100.333328247070312, 591.5, 189.0, 22.0 ],
					"text" : "sprintf symout %s%s-%s.mov"
				}

			}
, 			{
				"box" : 				{
					"fontname" : "Arial",
					"fontsize" : 12.0,
					"id" : "obj-23",
					"maxclass" : "message",
					"numinlets" : 2,
					"numoutlets" : 1,
					"outlettype" : [ "" ],
					"patching_rect" : [ 150.833328247070312, 436.5, 197.0, 22.0 ],
					"text" : "Macintosh HD:/Applications/videos/"
				}

			}
, 			{
				"box" : 				{
					"fontname" : "Arial",
					"fontsize" : 12.0,
					"id" : "obj-27",
					"linecount" : 2,
					"maxclass" : "message",
					"numinlets" : 2,
					"numoutlets" : 1,
					"outlettype" : [ "" ],
					"patching_rect" : [ 535.66668701171875, 665.0, 155.0, 35.0 ],
					"text" : "\"Macintosh HD:/Applications/\""
				}

			}
, 			{
				"box" : 				{
					"fontname" : "Arial",
					"fontsize" : 12.0,
					"id" : "obj-29",
					"linecount" : 2,
					"maxclass" : "message",
					"numinlets" : 2,
					"numoutlets" : 1,
					"outlettype" : [ "" ],
					"patching_rect" : [ 530.66668701171875, 600.66668701171875, 129.0, 35.0 ],
					"text" : ";\rmax sendapppath app"
				}

			}
, 			{
				"box" : 				{
					"fontname" : "Arial",
					"fontsize" : 12.0,
					"id" : "obj-31",
					"maxclass" : "newobj",
					"numinlets" : 0,
					"numoutlets" : 1,
					"outlettype" : [ "" ],
					"patching_rect" : [ 535.66668701171875, 645.0, 38.0, 22.0 ],
					"text" : "r app"
				}

			}
 ],
		"lines" : [ 			{
				"patchline" : 				{
					"destination" : [ "obj-81", 0 ],
					"midpoints" : [ 143.833343505859375, 771.999994337558746, 47.166667938232422, 771.999994337558746 ],
					"source" : [ "obj-104", 0 ]
				}

			}
, 			{
				"patchline" : 				{
					"destination" : [ "obj-81", 0 ],
					"midpoints" : [ 86.166671752929688, 766.333345115184784, 47.166667938232422, 766.333345115184784 ],
					"source" : [ "obj-105", 0 ]
				}

			}
, 			{
				"patchline" : 				{
					"destination" : [ "obj-81", 0 ],
					"source" : [ "obj-106", 0 ]
				}

			}
, 			{
				"patchline" : 				{
					"destination" : [ "obj-19", 1 ],
					"order" : 0,
					"source" : [ "obj-14", 0 ]
				}

			}
, 			{
				"patchline" : 				{
					"destination" : [ "obj-24", 0 ],
					"order" : 1,
					"source" : [ "obj-14", 0 ]
				}

			}
, 			{
				"patchline" : 				{
					"destination" : [ "obj-20", 0 ],
					"source" : [ "obj-15", 0 ]
				}

			}
, 			{
				"patchline" : 				{
					"destination" : [ "obj-14", 0 ],
					"source" : [ "obj-16", 0 ]
				}

			}
, 			{
				"patchline" : 				{
					"destination" : [ "obj-70", 0 ],
					"source" : [ "obj-18", 0 ]
				}

			}
, 			{
				"patchline" : 				{
					"destination" : [ "obj-106", 0 ],
					"source" : [ "obj-2", 0 ]
				}

			}
, 			{
				"patchline" : 				{
					"destination" : [ "obj-33", 0 ],
					"source" : [ "obj-20", 0 ]
				}

			}
, 			{
				"patchline" : 				{
					"destination" : [ "obj-22", 0 ],
					"source" : [ "obj-21", 0 ]
				}

			}
, 			{
				"patchline" : 				{
					"destination" : [ "obj-20", 1 ],
					"source" : [ "obj-22", 0 ]
				}

			}
, 			{
				"patchline" : 				{
					"destination" : [ "obj-15", 0 ],
					"source" : [ "obj-23", 0 ]
				}

			}
, 			{
				"patchline" : 				{
					"destination" : [ "obj-16", 0 ],
					"source" : [ "obj-26", 2 ]
				}

			}
, 			{
				"patchline" : 				{
					"destination" : [ "obj-21", 0 ],
					"source" : [ "obj-26", 1 ]
				}

			}
, 			{
				"patchline" : 				{
					"destination" : [ "obj-23", 0 ],
					"source" : [ "obj-26", 0 ]
				}

			}
, 			{
				"patchline" : 				{
					"destination" : [ "obj-105", 0 ],
					"order" : 0,
					"source" : [ "obj-3", 0 ]
				}

			}
, 			{
				"patchline" : 				{
					"destination" : [ "obj-2", 0 ],
					"order" : 1,
					"source" : [ "obj-3", 0 ]
				}

			}
, 			{
				"patchline" : 				{
					"destination" : [ "obj-27", 1 ],
					"source" : [ "obj-31", 0 ]
				}

			}
, 			{
				"patchline" : 				{
					"destination" : [ "obj-18", 0 ],
					"source" : [ "obj-33", 0 ]
				}

			}
, 			{
				"patchline" : 				{
					"destination" : [ "obj-70", 0 ],
					"midpoints" : [ 268.833343505859375, 857.757561042968746, 47.166667938232422, 857.757561042968746 ],
					"source" : [ "obj-68", 0 ]
				}

			}
, 			{
				"patchline" : 				{
					"destination" : [ "obj-57", 0 ],
					"source" : [ "obj-685", 0 ]
				}

			}
, 			{
				"patchline" : 				{
					"destination" : [ "obj-65", 0 ],
					"source" : [ "obj-70", 1 ]
				}

			}
, 			{
				"patchline" : 				{
					"destination" : [ "obj-66", 0 ],
					"source" : [ "obj-70", 0 ]
				}

			}
, 			{
				"patchline" : 				{
					"destination" : [ "obj-26", 0 ],
					"source" : [ "obj-80", 0 ]
				}

			}
, 			{
				"patchline" : 				{
					"destination" : [ "obj-70", 0 ],
					"source" : [ "obj-81", 0 ]
				}

			}
, 			{
				"patchline" : 				{
					"destination" : [ "obj-87", 0 ],
					"source" : [ "obj-85", 0 ]
				}

			}
, 			{
				"patchline" : 				{
					"destination" : [ "obj-68", 0 ],
					"source" : [ "obj-87", 0 ]
				}

			}
, 			{
				"patchline" : 				{
					"destination" : [ "obj-80", 0 ],
					"source" : [ "obj-89", 0 ]
				}

			}
 ],
		"dependency_cache" : [  ],
		"autosave" : 0,
		"styles" : [ 			{
				"name" : "AudioStatus_Menu",
				"default" : 				{
					"bgfillcolor" : 					{
						"type" : "color",
						"color" : [ 0.294118, 0.313726, 0.337255, 1 ],
						"color1" : [ 0.454902, 0.462745, 0.482353, 0.0 ],
						"color2" : [ 0.290196, 0.309804, 0.301961, 1.0 ],
						"angle" : 270.0,
						"proportion" : 0.39,
						"autogradient" : 0
					}

				}
,
				"parentstyle" : "",
				"multi" : 0
			}
, 			{
				"name" : "default_style",
				"newobj" : 				{
					"accentcolor" : [ 0.65098, 0.666667, 0.662745, 1.0 ],
					"bgcolor" : [ 1.0, 1.0, 1.0, 1.0 ],
					"textcolor_inverse" : [ 0.0, 0.0, 0.0, 1.0 ]
				}
,
				"toggle" : 				{
					"bgcolor" : [ 0.636487, 0.648652, 0.683149, 1.0 ],
					"elementcolor" : [ 0.786675, 0.801885, 0.845022, 1.0 ],
					"color" : [ 0.0, 0.0, 0.0, 1.0 ]
				}
,
				"button" : 				{
					"bgcolor" : [ 0.682032, 0.698052, 0.748716, 1.0 ],
					"color" : [ 0.960784, 0.827451, 0.156863, 1.0 ]
				}
,
				"parentstyle" : "",
				"multi" : 1
			}
, 			{
				"name" : "default_style-1",
				"newobj" : 				{
					"accentcolor" : [ 0.65098, 0.666667, 0.662745, 1.0 ],
					"bgcolor" : [ 1.0, 1.0, 1.0, 1.0 ],
					"textcolor_inverse" : [ 0.0, 0.0, 0.0, 1.0 ]
				}
,
				"toggle" : 				{
					"bgcolor" : [ 0.636487, 0.648652, 0.683149, 1.0 ],
					"elementcolor" : [ 0.786675, 0.801885, 0.845022, 1.0 ],
					"color" : [ 0.0, 0.0, 0.0, 1.0 ]
				}
,
				"button" : 				{
					"bgcolor" : [ 0.682032, 0.698052, 0.748716, 1.0 ],
					"color" : [ 0.960784, 0.827451, 0.156863, 1.0 ]
				}
,
				"parentstyle" : "",
				"multi" : 0
			}
, 			{
				"name" : "master_style",
				"newobj" : 				{
					"accentcolor" : [ 0.65098, 0.666667, 0.662745, 1.0 ],
					"bgcolor" : [ 1.0, 1.0, 1.0, 1.0 ],
					"textcolor_inverse" : [ 0.0, 0.0, 0.0, 1.0 ]
				}
,
				"toggle" : 				{
					"bgcolor" : [ 0.682032, 0.698052, 0.748716, 1.0 ],
					"elementcolor" : [ 0.65098, 0.666667, 0.662745, 1.0 ],
					"color" : [ 0.0, 0.0, 0.0, 1.0 ]
				}
,
				"function" : 				{
					"bgcolor" : [ 0.65098, 0.666667, 0.662745, 1.0 ],
					"color" : [ 0.0, 0.0, 0.0, 1.0 ]
				}
,
				"attrui" : 				{
					"bgcolor" : [ 0.786675, 0.801885, 0.845022, 1.0 ],
					"textcolor_inverse" : [ 0.0, 0.0, 0.0, 1.0 ]
				}
,
				"multislider" : 				{
					"bgcolor" : [ 1.0, 1.0, 1.0, 1.0 ],
					"color" : [ 0.0, 0.0, 0.0, 1.0 ]
				}
,
				"ezadc~" : 				{
					"bgcolor" : [ 0.65098, 0.666667, 0.662745, 1.0 ],
					"elementcolor" : [ 0.862745, 0.870588, 0.878431, 1.0 ],
					"color" : [ 0.0, 0.0, 0.0, 1.0 ]
				}
,
				"slider" : 				{
					"bgcolor" : [ 1.0, 1.0, 1.0, 1.0 ],
					"elementcolor" : [ 0.65098, 0.666667, 0.662745, 1.0 ],
					"color" : [ 0.461105, 0.492646, 0.591878, 1.0 ]
				}
,
				"button" : 				{
					"bgcolor" : [ 0.682032, 0.698052, 0.748716, 1.0 ],
					"elementcolor" : [ 0.786675, 0.801885, 0.845022, 1.0 ],
					"color" : [ 1.0, 0.95051, 0.0, 1.0 ]
				}
,
				"ezdac~" : 				{
					"bgcolor" : [ 0.65098, 0.666667, 0.662745, 1.0 ],
					"elementcolor" : [ 0.862745, 0.870588, 0.878431, 1.0 ],
					"color" : [ 0.0, 0.0, 0.0, 1.0 ]
				}
,
				"gain~" : 				{
					"elementcolor" : [ 0.65098, 0.666667, 0.662745, 1.0 ],
					"color" : [ 1.0, 0.861448, 0.16921, 1.0 ]
				}
,
				"kslider" : 				{
					"elementcolor" : [ 0.65098, 0.666667, 0.662745, 1.0 ],
					"color" : [ 1.0, 1.0, 1.0, 1.0 ]
				}
,
				"message" : 				{
					"textcolor_inverse" : [ 0.0, 0.0, 0.0, 1.0 ],
					"bgfillcolor" : 					{
						"type" : "gradient",
						"color1" : [ 0.786675, 0.801885, 0.845022, 1.0 ],
						"color2" : [ 0.65098, 0.666667, 0.662745, 1.0 ],
						"color" : [ 0.290196, 0.309804, 0.301961, 1.0 ],
						"angle" : 270.0,
						"proportion" : 0.39,
						"autogradient" : 0
					}

				}
,
				"umenu" : 				{
					"bgfillcolor" : 					{
						"type" : "gradient",
						"color1" : [ 0.786675, 0.801885, 0.845022, 1.0 ],
						"color2" : [ 0.65098, 0.666667, 0.662745, 1.0 ],
						"color" : [ 0.290196, 0.309804, 0.301961, 1.0 ],
						"angle" : 270.0,
						"proportion" : 0.39,
						"autogradient" : 0
					}

				}
,
				"parentstyle" : "",
				"multi" : 1
			}
, 			{
				"name" : "master_style-1",
				"newobj" : 				{
					"accentcolor" : [ 0.65098, 0.666667, 0.662745, 1.0 ],
					"bgcolor" : [ 1.0, 1.0, 1.0, 1.0 ],
					"textcolor_inverse" : [ 0.0, 0.0, 0.0, 1.0 ]
				}
,
				"toggle" : 				{
					"bgcolor" : [ 0.682032, 0.698052, 0.748716, 1.0 ],
					"elementcolor" : [ 0.65098, 0.666667, 0.662745, 1.0 ],
					"color" : [ 0.0, 0.0, 0.0, 1.0 ]
				}
,
				"function" : 				{
					"bgcolor" : [ 0.65098, 0.666667, 0.662745, 1.0 ],
					"color" : [ 0.0, 0.0, 0.0, 1.0 ]
				}
,
				"attrui" : 				{
					"bgcolor" : [ 0.786675, 0.801885, 0.845022, 1.0 ],
					"textcolor_inverse" : [ 0.0, 0.0, 0.0, 1.0 ]
				}
,
				"multislider" : 				{
					"bgcolor" : [ 1.0, 1.0, 1.0, 1.0 ],
					"color" : [ 0.0, 0.0, 0.0, 1.0 ]
				}
,
				"ezadc~" : 				{
					"bgcolor" : [ 0.65098, 0.666667, 0.662745, 1.0 ],
					"elementcolor" : [ 0.862745, 0.870588, 0.878431, 1.0 ],
					"color" : [ 0.0, 0.0, 0.0, 1.0 ]
				}
,
				"slider" : 				{
					"bgcolor" : [ 1.0, 1.0, 1.0, 1.0 ],
					"elementcolor" : [ 0.65098, 0.666667, 0.662745, 1.0 ],
					"color" : [ 0.461105, 0.492646, 0.591878, 1.0 ]
				}
,
				"button" : 				{
					"bgcolor" : [ 0.682032, 0.698052, 0.748716, 1.0 ],
					"elementcolor" : [ 0.786675, 0.801885, 0.845022, 1.0 ],
					"color" : [ 1.0, 0.95051, 0.0, 1.0 ]
				}
,
				"ezdac~" : 				{
					"bgcolor" : [ 0.65098, 0.666667, 0.662745, 1.0 ],
					"elementcolor" : [ 0.862745, 0.870588, 0.878431, 1.0 ],
					"color" : [ 0.0, 0.0, 0.0, 1.0 ]
				}
,
				"gain~" : 				{
					"elementcolor" : [ 0.65098, 0.666667, 0.662745, 1.0 ],
					"color" : [ 1.0, 0.861448, 0.16921, 1.0 ]
				}
,
				"kslider" : 				{
					"elementcolor" : [ 0.65098, 0.666667, 0.662745, 1.0 ],
					"color" : [ 1.0, 1.0, 1.0, 1.0 ]
				}
,
				"message" : 				{
					"textcolor_inverse" : [ 0.0, 0.0, 0.0, 1.0 ],
					"bgfillcolor" : 					{
						"type" : "gradient",
						"color1" : [ 0.786675, 0.801885, 0.845022, 1.0 ],
						"color2" : [ 0.65098, 0.666667, 0.662745, 1.0 ],
						"color" : [ 0.290196, 0.309804, 0.301961, 1.0 ],
						"angle" : 270.0,
						"proportion" : 0.39,
						"autogradient" : 0.0
					}

				}
,
				"umenu" : 				{
					"bgfillcolor" : 					{
						"type" : "gradient",
						"color1" : [ 0.786675, 0.801885, 0.845022, 1.0 ],
						"color2" : [ 0.65098, 0.666667, 0.662745, 1.0 ],
						"color" : [ 0.290196, 0.309804, 0.301961, 1.0 ],
						"angle" : 270.0,
						"proportion" : 0.39,
						"autogradient" : 0
					}

				}
,
				"parentstyle" : "",
				"multi" : 0
			}
, 			{
				"name" : "newobjBlue-1",
				"default" : 				{
					"accentcolor" : [ 0.317647, 0.654902, 0.976471, 1.0 ]
				}
,
				"parentstyle" : "",
				"multi" : 0
			}
, 			{
				"name" : "newobjYellow-1",
				"default" : 				{
					"accentcolor" : [ 0.82517, 0.78181, 0.059545, 1.0 ],
					"fontsize" : [ 12.059008 ]
				}
,
				"parentstyle" : "",
				"multi" : 0
			}
 ]
	}

}
